<svg width="40" height="40" viewBox="0 0 40 40" fill="none" xmlns="http://www.w3.org/2000/svg">
<g clip-path="url(#clip0_533_1578)">
<path fill-rule="evenodd" clip-rule="evenodd" d="M30.5232 22.4295C28.3365 31.9005 21.8526 38.4908 16.0409 37.1491C10.2289 35.8071 7.29005 27.0415 9.47682 17.5705C11.6631 8.09948 18.1474 1.50978 23.9591 2.85137C29.7711 4.19297 32.71 12.9585 30.5232 22.4295ZM19.9997 0C8.95423 0 0 8.9546 0 20C0 31.0458 8.95423 40 19.9997 40C31.0457 40 40 31.0458 40 20C40 8.9546 31.0457 0 19.9997 0Z" fill="#82DC28"/>
<path fill-rule="evenodd" clip-rule="evenodd" d="M25.5249 10.4176C24.8728 13.2209 22.7212 15.1097 20.7178 14.6474C18.7137 14.1837 17.6169 11.5385 18.2583 8.73948C18.9091 5.94691 21.0551 4.05576 23.0583 4.51668C25.0681 4.98135 26.1691 7.62273 25.5249 10.4176Z" fill="#FF7878"/>
</g>
<defs>
<clipPath id="clip0_533_1578">
<rect width="40" height="40" fill="white"/>
</clipPath>
</defs>
</svg>
