<svg width="30" height="30" viewBox="0 0 30 30" fill="none" xmlns="http://www.w3.org/2000/svg">
<g clip-path="url(#clip0_563_370)">
<path d="M15.0007 3.75C22.2507 3.75 28.127 8.33 28.127 13.9813C28.127 19.6313 22.2507 24.2113 15.002 24.2113C14.2802 24.21 13.5593 24.1641 12.8432 24.0738L7.3332 27.6775C6.70695 28.0088 6.4857 27.9725 6.7432 27.1613L7.8582 22.5638C4.2582 20.7388 1.87695 17.5763 1.87695 13.9813C1.87695 8.33125 7.75195 3.75 15.002 3.75M22.387 13.825L24.2245 12.045C24.3305 11.9349 24.3896 11.7879 24.3894 11.6351C24.3893 11.4822 24.3298 11.3354 24.2235 11.2255C24.1172 11.1157 23.9724 11.0513 23.8196 11.0461C23.6668 11.0409 23.518 11.0952 23.4045 11.1975L20.9945 13.53V11.6025C20.9945 11.446 20.9323 11.296 20.8216 11.1853C20.711 11.0747 20.5609 11.0125 20.4045 11.0125C20.248 11.0125 20.0979 11.0747 19.9873 11.1853C19.8766 11.296 19.8145 11.446 19.8145 11.6025V14.7987C19.7937 14.8901 19.7937 14.9849 19.8145 15.0763V16.875C19.8145 17.0315 19.8766 17.1815 19.9873 17.2922C20.0979 17.4028 20.248 17.465 20.4045 17.465C20.5609 17.465 20.711 17.4028 20.8216 17.2922C20.9323 17.1815 20.9945 17.0315 20.9945 16.875V15.1713L21.5282 14.655L23.3132 17.1962C23.3578 17.2597 23.4144 17.3137 23.4799 17.3553C23.5453 17.3969 23.6183 17.4251 23.6947 17.4385C23.7711 17.4518 23.8493 17.45 23.925 17.4331C24.0007 17.4162 24.0723 17.3846 24.1357 17.34C24.1992 17.2954 24.2532 17.2388 24.2948 17.1734C24.3363 17.1079 24.3646 17.0349 24.3779 16.9585C24.3913 16.8821 24.3894 16.8039 24.3726 16.7282C24.3557 16.6525 24.324 16.5809 24.2795 16.5175L22.387 13.825ZM18.6895 16.23H16.8645V11.6213C16.8575 11.4696 16.7923 11.3265 16.6826 11.2217C16.5728 11.1169 16.4269 11.0584 16.2751 11.0584C16.1233 11.0584 15.9774 11.1169 15.8676 11.2217C15.7578 11.3265 15.6927 11.4696 15.6857 11.6213V16.82C15.6857 17.145 15.9482 17.41 16.2745 17.41H18.6895C18.8459 17.41 18.996 17.3478 19.1066 17.2372C19.2173 17.1265 19.2795 16.9765 19.2795 16.82C19.2795 16.6635 19.2173 16.5135 19.1066 16.4028C18.996 16.2922 18.8459 16.23 18.6895 16.23ZM11.3682 14.8662L12.2382 12.7313L13.0357 14.865L11.3682 14.8662ZM14.522 15.475L14.5245 15.455C14.524 15.3064 14.4673 15.1635 14.3657 15.055L13.0582 11.555C13.0034 11.3882 12.899 11.2421 12.7589 11.1362C12.6189 11.0304 12.4499 10.9698 12.2745 10.9625C12.0979 10.9624 11.9255 11.0157 11.7798 11.1155C11.6341 11.2152 11.522 11.3566 11.4582 11.5212L9.3807 16.615C9.32153 16.7599 9.32233 16.9223 9.38292 17.0666C9.44352 17.2109 9.55895 17.3252 9.70383 17.3844C9.8487 17.4436 10.0112 17.4428 10.1554 17.3822C10.2997 17.3216 10.414 17.2061 10.4732 17.0613L10.8882 16.045H13.4757L13.8482 17.045C13.8736 17.1197 13.9138 17.1886 13.9663 17.2476C14.0188 17.3065 14.0826 17.3543 14.154 17.3882C14.2253 17.422 14.3027 17.4412 14.3816 17.4446C14.4604 17.4479 14.5392 17.4355 14.6131 17.4078C14.6871 17.3802 14.7548 17.3381 14.8121 17.2838C14.8695 17.2296 14.9154 17.1644 14.9471 17.0921C14.9788 17.0198 14.9957 16.9418 14.9968 16.8629C14.9978 16.784 14.983 16.7056 14.9532 16.6325L14.522 15.475ZM10.3682 11.6275C10.3685 11.55 10.3535 11.4733 10.3241 11.4016C10.2946 11.33 10.2513 11.2648 10.1966 11.21C10.1419 11.1552 10.0768 11.1117 10.0052 11.0821C9.93366 11.0525 9.85692 11.0373 9.77945 11.0375H5.7232C5.56673 11.0375 5.41666 11.0997 5.30601 11.2103C5.19536 11.321 5.1332 11.471 5.1332 11.6275C5.1332 11.784 5.19536 11.934 5.30601 12.0447C5.41666 12.1553 5.56673 12.2175 5.7232 12.2175H7.1732V16.8875C7.1732 17.044 7.23536 17.194 7.34601 17.3047C7.45666 17.4153 7.60673 17.4775 7.7632 17.4775C7.91968 17.4775 8.06975 17.4153 8.1804 17.3047C8.29104 17.194 8.3532 17.044 8.3532 16.8875V12.2175H9.7782C9.85578 12.2178 9.93265 12.2028 10.0044 12.1733C10.0761 12.1437 10.1413 12.1003 10.1961 12.0454C10.251 11.9906 10.2944 11.9254 10.324 11.8537C10.3535 11.7819 10.3685 11.7051 10.3682 11.6275Z" fill="black"/>
</g>
<defs>
<clipPath id="clip0_563_370">
<rect width="30" height="30" fill="white"/>
</clipPath>
</defs>
</svg>
